<svg xmlns="http://www.w3.org/2000/svg" width="16" height="16" fill="none" viewBox="0 0 16 16">
  <path fill="#8F95B2" fill-rule="evenodd" d="M14.108 4.696H1.873a.466.466 0 0 0-.47.471c0 .264.206.47.47.47h.47v9.412c0 .518.424.942.942.942h9.412a.944.944 0 0 0 .94-.942V5.638h.471c.264 0 .47-.207.47-.47a.466.466 0 0 0-.47-.472Zm-8 8.471a.944.944 0 0 1-.941.941.944.944 0 0 1-.941-.94V7.52c0-.518.423-.941.941-.941s.941.423.941.941v5.647Zm2.824 0a.944.944 0 0 1-.941.941.944.944 0 0 1-.942-.94V7.52c0-.518.424-.941.942-.941.517 0 .94.423.94.941v5.647Zm2.823 0a.944.944 0 0 1-.94.941.944.944 0 0 1-.942-.94V7.52c0-.518.424-.941.941-.941.518 0 .941.423.941.941v5.647Zm1.883-11.294H9.873a.944.944 0 0 0-.941-.941H7.049a.944.944 0 0 0-.94.94H2.343a.944.944 0 0 0-.942.942v.941H14.58v-.94a.944.944 0 0 0-.941-.942Z" clip-rule="evenodd"/>
</svg>
